<svg width="75" height="60" viewBox="0 0 75 60" fill="none" xmlns="http://www.w3.org/2000/svg">
<path d="M43.8797 60C60.0981 60.0785 74.9012 46.6261 74.9012 30.2607C74.9012 12.3643 60.0981 -0.00595024 43.8797 2.14721e-06H29.9219C13.5092 -0.00595024 0 12.368 0 30.2607C0 46.6297 13.5092 60.0786 29.9219 60H43.8797Z" fill="#0079BE"/>
<path d="M29.9879 2.47974C14.9905 2.4845 2.83756 14.7762 2.83403 29.9465C2.83756 45.1143 14.9903 57.4047 29.9879 57.4095C44.9889 57.4047 57.1442 45.1143 57.1464 29.9465C57.1441 14.7762 44.9889 2.4845 29.9879 2.47974ZM12.7758 29.9465C12.7899 22.5334 17.3688 16.212 23.8255 13.7V46.1893C17.3688 43.6787 12.7898 37.3607 12.7758 29.9465ZM36.1479 46.1964V13.6989C42.607 16.2049 47.1929 22.5299 47.2047 29.9465C47.1929 37.3654 42.607 43.6857 36.1479 46.1964Z" fill="white"/>
<path d="M43.8797 60C60.0981 60.0785 74.9012 46.6261 74.9012 30.2607C74.9012 12.3643 60.0981 -0.00595024 43.8797 2.14721e-06H29.9219C13.5092 -0.00595024 0 12.368 0 30.2607C0 46.6297 13.5092 60.0786 29.9219 60H43.8797Z" fill="#0079BE"/>
<path d="M29.9879 2.47974C14.9905 2.4845 2.83756 14.7762 2.83403 29.9465C2.83756 45.1143 14.9903 57.4047 29.9879 57.4095C44.9889 57.4047 57.1442 45.1143 57.1464 29.9465C57.1441 14.7762 44.9889 2.4845 29.9879 2.47974ZM12.7758 29.9465C12.7899 22.5334 17.3688 16.212 23.8255 13.7V46.1893C17.3688 43.6787 12.7898 37.3607 12.7758 29.9465ZM36.1479 46.1964V13.6989C42.607 16.2049 47.1929 22.5299 47.2047 29.9465C47.1929 37.3654 42.607 43.6857 36.1479 46.1964Z" fill="white"/>
</svg>
