<svg xmlns="http://www.w3.org/2000/svg" width="16" height="22" viewBox="0 0 16 22">
    <g fill="none" fill-rule="evenodd">
        <g fill="#111E6C">
            <g>
                <path d="M1.747 0C.784 0 0 .77 0 1.715V20h13.64c.2 0 .36-.157.36-.353 0-.194-.16-.353-.36-.353H.72V1.714c0-.556.462-1.008 1.028-1.008H13.28v17.36H14V0H1.747z" transform="translate(-32 -192) translate(33 193)"/>
                <g>
                    <g>
                        <path d="M2.5.802V.48C2.5.215 2.281 0 2.012 0H.488C.218 0 0 .215 0 .48v.322c0 .265.219.48.488.48h1.524c.27 0 .488-.215.488-.48M2.5 2.802V2.48c0-.265-.219-.48-.488-.48H.488C.218 2 0 2.215 0 2.48v.322c0 .265.219.48.488.48h1.524c.27 0 .488-.215.488-.48M2.5 4.802V4.48c0-.265-.219-.48-.488-.48H.488C.218 4 0 4.215 0 4.48v.322c0 .265.219.48.488.48h1.524c.27 0 .488-.215.488-.48M2.5 6.802V6.48c0-.265-.219-.48-.488-.48H.488C.218 6 0 6.215 0 6.48v.322c0 .265.219.48.488.48h1.524c.27 0 .488-.215.488-.48" transform="translate(-32 -192) translate(33 193) translate(2 10.71)"/>
                    </g>
                    <g>
                        <path d="M2.5.802V.48C2.5.215 2.281 0 2.012 0H.488C.218 0 0 .215 0 .48v.322c0 .265.219.48.488.48h1.524c.27 0 .488-.215.488-.48M2.5 2.802V2.48c0-.265-.219-.48-.488-.48H.488C.218 2 0 2.215 0 2.48v.322c0 .265.219.48.488.48h1.524c.27 0 .488-.215.488-.48M2.5 4.802V4.48c0-.265-.219-.48-.488-.48H.488C.218 4 0 4.215 0 4.48v.322c0 .265.219.48.488.48h1.524c.27 0 .488-.215.488-.48M2.5 6.802V6.48c0-.265-.219-.48-.488-.48H.488C.218 6 0 6.215 0 6.48v.322c0 .265.219.48.488.48h1.524c.27 0 .488-.215.488-.48" transform="translate(-32 -192) translate(33 193) translate(2 10.71) translate(3.7)"/>
                    </g>
                    <g>
                        <path d="M2.5.802V.48C2.5.215 2.281 0 2.012 0H.488C.218 0 0 .215 0 .48v.322c0 .265.219.48.488.48h1.524c.27 0 .488-.215.488-.48M2.5 2.802V2.48c0-.265-.219-.48-.488-.48H.488C.218 2 0 2.215 0 2.48v.322c0 .265.219.48.488.48h1.524c.27 0 .488-.215.488-.48M2.5 4.802V4.48c0-.265-.219-.48-.488-.48H.488C.218 4 0 4.215 0 4.48v.322c0 .265.219.48.488.48h1.524c.27 0 .488-.215.488-.48M2.5 6.802V6.48c0-.265-.219-.48-.488-.48H.488C.218 6 0 6.215 0 6.48v.322c0 .265.219.48.488.48h1.524c.27 0 .488-.215.488-.48" transform="translate(-32 -192) translate(33 193) translate(2 10.71) translate(7.4)"/>
                    </g>
                </g>
                <path stroke="#121E6C" stroke-width=".4" d="M2.65 8.195h8.7v-3.39h-8.7v3.39zM2 9h10V4H2v5z" transform="translate(-32 -192) translate(33 193)"/>
                <path stroke="#121E6C" stroke-width=".3" d="M1.747 0C.784 0 0 .77 0 1.715V20h13.64c.2 0 .36-.157.36-.353 0-.194-.16-.353-.36-.353H.72V1.714c0-.556.462-1.008 1.028-1.008H13.28v17.36H14V0H1.747z" transform="translate(-32 -192) translate(33 193)"/>
            </g>
        </g>
    </g>
</svg>
