<svg xmlns="http://www.w3.org/2000/svg" xmlns:xlink="http://www.w3.org/1999/xlink" width="20" height="20" viewBox="0 0 20 20">
    <defs>
        <path id="4lfaiempxa" d="M0 0L12.736 0 12.736 12.944 0 12.944z"/>
    </defs>
    <g fill="none" fill-rule="evenodd">
        <g>
            <g>
                <g transform="translate(-30 -231) translate(30 231) translate(7.264)">
                    <mask id="6oj1a99hob" fill="#fff">
                        <use xlink:href="#4lfaiempxa"/>
                    </mask>
                    <path fill="#111E6C" d="M5.536 1.271l-4.55 4.55c-.15.15-.281.311-.403.477.558-.105 1.13-.114 1.69-.028l4.143-4.143C7.538 1.006 9.364.899 10.54 1.964c1.257 1.138 1.293 3.088.108 4.273L6.444 10.44l-.42.42c-.666.666-1.574.944-2.444.838-.631-.077-1.243-.354-1.726-.838-.304-.304-.527-.658-.67-1.036-.138-.37-.58-.517-.907-.295l-.013.009c-.234.16-.323.458-.224.723.202.535.516 1.037.946 1.467.55.55 1.219.91 1.924 1.088 1.188.3 2.481.072 3.506-.685.165-.122.326-.254.476-.403l4.623-4.623c1.666-1.666 1.627-4.402-.116-6.018-1.658-1.538-4.263-1.415-5.863.184" mask="url(#6oj1a99hob)"/>
                </g>
                <path fill="#111E6C" d="M9.803 7.161c-.32-.081-.648-.122-.977-.126-.518-.007-1.036.082-1.527.267-.352.133-.69.314-1.002.545-.165.122-.325.253-.475.403l-4.55 4.55c-1.6 1.6-1.723 4.204-.185 5.863 1.617 1.743 4.352 1.782 6.018.116l4.623-4.623c.15-.15.28-.31.403-.476-.558.105-1.13.114-1.691.028L6.297 17.85c-1.121 1.122-2.947 1.228-4.123.163-1.256-1.138-1.292-3.088-.107-4.272L6.27 9.538l.42-.42c.107-.108.222-.201.341-.288.382-.281.816-.457 1.265-.53.277-.044.56-.054.838-.02.631.076 1.242.354 1.726.838.304.303.526.658.669 1.035.139.37.58.518.907.296l.014-.01c.234-.16.323-.457.223-.722-.201-.535-.515-1.037-.945-1.467-.55-.551-1.22-.91-1.925-1.089" transform="translate(-30 -231) translate(30 231)"/>
            </g>
        </g>
    </g>
</svg>
